<svg width="19" height="11" viewBox="0 0 19 11" fill="none" xmlns="http://www.w3.org/2000/svg">
<path d="M9.48779 7.7129L16.8378 0.362903C17.0878 0.112903 17.3836 -0.00793011 17.7253 0.000403226C18.067 0.00873656 18.3628 0.137903 18.6128 0.387903C18.8628 0.637903 18.9878 0.933737 18.9878 1.2754C18.9878 1.61707 18.8628 1.9129 18.6128 2.1629L10.9128 9.8379C10.7128 10.0379 10.4878 10.1879 10.2378 10.2879C9.98779 10.3879 9.73779 10.4379 9.48779 10.4379C9.23779 10.4379 8.98779 10.3879 8.73779 10.2879C8.48779 10.1879 8.26279 10.0379 8.06279 9.8379L0.362793 2.1379C0.112793 1.8879 -0.00804138 1.59624 0.000291824 1.2629C0.00862503 0.92957 0.137793 0.637903 0.387793 0.387903C0.637793 0.137903 0.933626 0.0129032 1.27529 0.0129032C1.61696 0.0129032 1.91279 0.137903 2.16279 0.387903L9.48779 7.7129Z" fill="#54370D"/>
</svg>
