<svg width="20" height="20" viewBox="0 0 20 20" fill="none" xmlns="http://www.w3.org/2000/svg">
<mask id="mask0_3261_1271" style="mask-type:alpha" maskUnits="userSpaceOnUse" x="0" y="0" width="20" height="20">
<rect width="20" height="20" fill="#D9D9D9"/>
</mask>
<g mask="url(#mask0_3261_1271)">
<path d="M9.99984 18.3334C8.84706 18.3334 7.76373 18.1147 6.74984 17.6772C5.73595 17.2397 4.854 16.6459 4.104 15.8959C3.354 15.1459 2.76025 14.264 2.32275 13.2501C1.88525 12.2362 1.6665 11.1529 1.6665 10.0001C1.6665 8.8473 1.88525 7.76397 2.32275 6.75008C2.76025 5.73619 3.354 4.85425 4.104 4.10425C4.854 3.35425 5.73595 2.7605 6.74984 2.323C7.76373 1.8855 8.84706 1.66675 9.99984 1.66675C11.1526 1.66675 12.2359 1.8855 13.2498 2.323C14.2637 2.7605 15.1457 3.35425 15.8957 4.10425C16.6457 4.85425 17.2394 5.73619 17.6769 6.75008C18.1144 7.76397 18.3332 8.8473 18.3332 10.0001C18.3332 11.1529 18.1144 12.2362 17.6769 13.2501C17.2394 14.264 16.6457 15.1459 15.8957 15.8959C15.1457 16.6459 14.2637 17.2397 13.2498 17.6772C12.2359 18.1147 11.1526 18.3334 9.99984 18.3334ZM9.99984 16.6667C11.8609 16.6667 13.4373 16.0209 14.729 14.7292C16.0207 13.4376 16.6665 11.8612 16.6665 10.0001C16.6665 8.13897 16.0207 6.56258 14.729 5.27091C13.4373 3.97925 11.8609 3.33341 9.99984 3.33341C8.13873 3.33341 6.56234 3.97925 5.27067 5.27091C3.979 6.56258 3.33317 8.13897 3.33317 10.0001C3.33317 11.8612 3.979 13.4376 5.27067 14.7292C6.56234 16.0209 8.13873 16.6667 9.99984 16.6667ZM8.33317 13.3334H11.6665C11.9026 13.3334 12.1005 13.2536 12.2603 13.0938C12.42 12.9341 12.4998 12.7362 12.4998 12.5001V11.6667C12.4998 11.4306 12.42 11.2327 12.2603 11.073C12.1005 10.9133 11.9026 10.8334 11.6665 10.8334C11.4304 10.8334 11.2325 10.9133 11.0728 11.073C10.913 11.2327 10.8332 11.4306 10.8332 11.6667H9.1665V8.33341H10.8332C10.8332 8.56953 10.913 8.76744 11.0728 8.92717C11.2325 9.08689 11.4304 9.16675 11.6665 9.16675C11.9026 9.16675 12.1005 9.08689 12.2603 8.92717C12.42 8.76744 12.4998 8.56953 12.4998 8.33341V7.50008C12.4998 7.26397 12.42 7.06605 12.2603 6.90633C12.1005 6.74661 11.9026 6.66675 11.6665 6.66675H8.33317C8.09706 6.66675 7.89914 6.74661 7.73942 6.90633C7.5797 7.06605 7.49984 7.26397 7.49984 7.50008V12.5001C7.49984 12.7362 7.5797 12.9341 7.73942 13.0938C7.89914 13.2536 8.09706 13.3334 8.33317 13.3334Z" fill="white"/>
</g>
</svg>
