<svg width="40" height="40" viewBox="0 0 40 40" fill="none" xmlns="http://www.w3.org/2000/svg">
<mask id="mask0_3119_1355" style="mask-type:alpha" maskUnits="userSpaceOnUse" x="0" y="0" width="40" height="40">
<rect width="40" height="40" fill="#D9D9D9"/>
</mask>
<g mask="url(#mask0_3119_1355)">
<path d="M11.8332 18.9173C12.2221 18.1395 12.6248 17.3895 13.0415 16.6672C13.4582 15.945 13.9165 15.2228 14.4165 14.5006L12.0832 14.0422L8.58317 17.5422L11.8332 18.9173ZM31.9165 7.45892C29.9721 7.51447 27.8957 8.08392 25.6873 9.16725C23.479 10.2506 21.4721 11.695 19.6665 13.5006C18.4998 14.6672 17.4582 15.9172 16.5415 17.2506C15.6248 18.5839 14.9443 19.8339 14.4998 21.0006L19.2498 25.7089C20.4165 25.2645 21.6665 24.5839 22.9998 23.6672C24.3332 22.7506 25.5832 21.7089 26.7498 20.5422C28.5554 18.7367 29.9998 16.7367 31.0832 14.5422C32.1665 12.3478 32.736 10.2784 32.7915 8.33392C32.7915 8.2228 32.7707 8.11169 32.729 8.00058C32.6873 7.88947 32.6248 7.79225 32.5415 7.70892C32.4582 7.62558 32.361 7.56308 32.2498 7.52142C32.1387 7.47975 32.0276 7.45892 31.9165 7.45892ZM22.7498 17.4589C22.111 16.82 21.7915 16.0353 21.7915 15.1047C21.7915 14.1742 22.111 13.3895 22.7498 12.7506C23.3887 12.1117 24.1804 11.7922 25.1248 11.7922C26.0693 11.7922 26.8609 12.1117 27.4998 12.7506C28.1387 13.3895 28.4582 14.1742 28.4582 15.1047C28.4582 16.0353 28.1387 16.82 27.4998 17.4589C26.8609 18.0978 26.0693 18.4173 25.1248 18.4173C24.1804 18.4173 23.3887 18.0978 22.7498 17.4589ZM21.3332 28.3756L22.7082 31.6673L26.2082 28.1672L25.7498 25.8339C25.0276 26.3339 24.3054 26.7853 23.5832 27.1881C22.861 27.5909 22.1109 27.9867 21.3332 28.3756ZM35.9582 6.12558C36.1804 9.18114 35.6804 12.1603 34.4582 15.0631C33.236 17.9659 31.3054 20.7367 28.6665 23.3756L29.4998 27.5006C29.611 28.0561 29.5832 28.5978 29.4165 29.1256C29.2498 29.6534 28.9721 30.1117 28.5832 30.5006L23.3332 35.7506C22.9165 36.1672 22.4165 36.327 21.8332 36.2298C21.2498 36.1325 20.8471 35.8061 20.6248 35.2506L18.0832 29.2922L10.9582 22.1672L4.99984 19.6256C4.44428 19.4034 4.11095 19.0006 3.99984 18.4173C3.88873 17.8339 4.0415 17.3339 4.45817 16.9172L9.70817 11.6672C10.0971 11.2784 10.5623 11.0006 11.104 10.8339C11.6457 10.6672 12.1943 10.6395 12.7498 10.7506L16.8748 11.5839C19.5137 8.94503 22.2846 7.01447 25.1873 5.79225C28.0901 4.57003 31.0693 4.07003 34.1248 4.29225C34.3471 4.32003 34.5693 4.38253 34.7915 4.47975C35.0137 4.57697 35.2082 4.70892 35.3748 4.87558C35.5415 5.04225 35.6735 5.23669 35.7707 5.45892C35.8679 5.68114 35.9304 5.90336 35.9582 6.12558ZM6.5415 26.6256C7.51373 25.6534 8.70123 25.1603 10.104 25.1464C11.5068 25.1325 12.6943 25.6117 13.6665 26.5839C14.6387 27.5561 15.1179 28.7436 15.104 30.1464C15.0901 31.5492 14.5971 32.7367 13.6248 33.7089C12.2915 35.0422 10.7151 35.8339 8.89567 36.0839C7.07623 36.3339 5.24984 36.5839 3.4165 36.8339C3.6665 35.0006 3.9165 33.1742 4.1665 31.3548C4.4165 29.5353 5.20817 27.9589 6.5415 26.6256ZM8.9165 28.9589C8.44428 29.4311 8.11789 30.0006 7.93734 30.6672C7.75678 31.3339 7.61095 32.0145 7.49984 32.7089C8.19428 32.5978 8.87484 32.4589 9.5415 32.2923C10.2082 32.1256 10.7776 31.8061 11.2498 31.3339C11.5832 31.0006 11.7637 30.5978 11.7915 30.1256C11.8193 29.6534 11.6665 29.2506 11.3332 28.9173C10.9998 28.5839 10.5971 28.4242 10.1248 28.4381C9.65262 28.452 9.24984 28.6256 8.9165 28.9589Z" fill="#4EA487"/>
</g>
</svg>
