<svg width="32" height="32" viewBox="0 0 32 32" fill="none" xmlns="http://www.w3.org/2000/svg">
<g clip-path="url(#clip0_3137_1069)">
<path d="M25 0H7C3.13401 0 0 3.13401 0 7V25C0 28.866 3.13401 32 7 32H25C28.866 32 32 28.866 32 25V7C32 3.13401 28.866 0 25 0Z" fill="#F1C953"/>
<path d="M24.4366 8.58184C24.2616 8.49141 24.0913 8.39227 23.9262 8.28481C23.4463 7.96747 23.0062 7.59357 22.6155 7.17114C21.6379 6.05264 21.2728 4.91791 21.1383 4.12347H21.1437C21.0314 3.46401 21.0779 3.03735 21.0849 3.03735H16.6324V20.2541C16.6324 20.4852 16.6324 20.7137 16.6227 20.9395C16.6227 20.9675 16.62 20.9935 16.6184 21.0237C16.6184 21.0361 16.6184 21.0491 16.6157 21.0621C16.6157 21.0653 16.6157 21.0685 16.6157 21.0718C16.5688 21.6895 16.3707 22.2862 16.0391 22.8095C15.7074 23.3327 15.2522 23.7664 14.7135 24.0725C14.1521 24.3919 13.5172 24.5594 12.8713 24.5585C10.7968 24.5585 9.11556 22.867 9.11556 20.778C9.11556 18.6889 10.7968 16.9974 12.8713 16.9974C13.264 16.997 13.6543 17.0588 14.0276 17.1805L14.033 12.647C12.8996 12.5006 11.7481 12.5907 10.6512 12.9116C9.55433 13.2325 8.53586 13.7772 7.66003 14.5114C6.89263 15.1782 6.24746 15.9738 5.75356 16.8624C5.5656 17.1864 4.85646 18.4886 4.7706 20.6019C4.7166 21.8014 5.07683 23.0442 5.24856 23.5578V23.5686C5.3566 23.871 5.77516 24.9031 6.4573 25.7732C7.00733 26.4711 7.65716 27.0842 8.38593 27.5927V27.5819L8.39673 27.5927C10.5522 29.0574 12.9421 28.9613 12.9421 28.9613C13.3558 28.9446 14.7416 28.9613 16.3154 28.2154C18.061 27.3886 19.0547 26.1566 19.0547 26.1566C19.6896 25.4206 20.1944 24.5817 20.5475 23.676C20.9504 22.6169 21.0849 21.3467 21.0849 20.839V11.7051C21.1389 11.7375 21.8583 12.2133 21.8583 12.2133C21.8583 12.2133 22.8947 12.8776 24.5117 13.3103C25.6718 13.6181 27.2348 13.6829 27.2348 13.6829V9.26287C26.6871 9.32227 25.5751 9.14947 24.4366 8.58184Z" fill="#4EA487"/>
</g>
<defs>
<clipPath id="clip0_3137_1069">
<rect width="32" height="32" fill="white"/>
</clipPath>
</defs>
</svg>
